<svg xmlns="http://www.w3.org/2000/svg" viewBox="0 0 512 512">
  <!-- Minimalist Black Circle Background -->
  <circle cx="256" cy="256" r="240" fill="#000000"/>
  
  <!-- White Car Silhouette (Centered) -->
  <path d="M136 336c-17.7 0-32-14.3-32-32v-88c0-17.7 14.3-32 32-32h16l12.5-40.6c6.2-20.2 25-34 46.1-34h120.8c21.1 0 39.9 13.9 46.1 34l12.5 40.6h16c17.7 0 32 14.3 32 32v88c0 17.7-14.3 32-32 32H136z M168 336c13.3 0 24 10.7 24 24s-10.7 24-24 24-24-10.7-24-24 10.7-24 24-24zm176 0c13.3 0 24 10.7 24 24s-10.7 24-24 24-24-10.7-24-24 10.7-24 24-24z" fill="#ffffff" transform="translate(0, 20)"/>
  
  <!-- "Ready" Checkmark Icon (Green Circle with White Check or just Green Check) -->
  <!-- Let's do a solid green circle with white check for maximum visibility in small size -->
  <circle cx="390" cy="130" r="90" fill="#22c55e" stroke="#ffffff" stroke-width="15"/>
  <path d="M350 130 l25 25 l55 -55" stroke="#ffffff" stroke-width="15" fill="none" stroke-linecap="round" stroke-linejoin="round"/>
</svg>
